<svg width="51" height="50" fill="none" xmlns="http://www.w3.org/2000/svg"><g clip-path="url(#a)"><path d="M42.465 9.358A41.293 41.293 0 0 0 32.34 6.254a.155.155 0 0 0-.164.075c-.435.769-.92 1.771-1.26 2.563a38.291 38.291 0 0 0-11.374 0 25.8 25.8 0 0 0-1.279-2.563.16.16 0 0 0-.163-.079A41.26 41.26 0 0 0 7.974 9.356a.145.145 0 0 0-.066.057C1.458 18.943-.311 28.24.558 37.419a.167.167 0 0 0 .064.114 41.437 41.437 0 0 0 12.422 6.209.16.16 0 0 0 .174-.054 28.83 28.83 0 0 0 2.541-4.09.155.155 0 0 0-.085-.217 27.29 27.29 0 0 1-3.88-1.829.155.155 0 0 1-.078-.126.157.157 0 0 1 .062-.134c.26-.194.522-.396.77-.598a.154.154 0 0 1 .162-.021c8.14 3.675 16.956 3.675 25 0a.155.155 0 0 1 .164.019c.249.204.508.406.771.6a.156.156 0 0 1 .041.206.157.157 0 0 1-.053.054 25.529 25.529 0 0 1-3.883 1.827.154.154 0 0 0-.092.09.157.157 0 0 0 .007.129 32.696 32.696 0 0 0 2.54 4.087.16.16 0 0 0 .174.059 41.298 41.298 0 0 0 12.44-6.21.16.16 0 0 0 .067-.113c1.036-10.613-1.737-19.834-7.357-28.004a.124.124 0 0 0-.064-.059ZM16.976 31.83c-2.45 0-4.47-2.227-4.47-4.958 0-2.733 1.98-4.958 4.47-4.958 2.508 0 4.51 2.243 4.471 4.958 0 2.733-1.981 4.958-4.47 4.958Zm16.53 0c-2.451 0-4.47-2.227-4.47-4.958 0-2.733 1.98-4.958 4.47-4.958 2.509 0 4.511 2.243 4.472 4.958 0 2.733-1.961 4.958-4.471 4.958Z" fill="#fff"/></g><defs><clipPath id="a"><path fill="#fff" transform="translate(.354)" d="M0 0h49.747v50H0z"/></clipPath></defs></svg>