<svg width="48" height="47" fill="none" xmlns="http://www.w3.org/2000/svg"><path d="M24.365 0C11.454 0 .985 10.523.985 23.5S11.453 47 24.364 47c12.912 0 23.381-10.523 23.381-23.5S37.277 0 24.366 0Zm13.36 13.308-2.129 2.05a.623.623 0 0 0-.24.599v15.091a.614.614 0 0 0 .24.598l2.088 2.051v.457h-10.48v-.436l2.156-2.103c.214-.215.214-.278.214-.598V18.805l-6.002 15.296h-.809L15.78 18.805V29.06c-.063.43.089.866.392 1.175l2.807 3.415v.456h-7.974v-.456l2.808-3.415a1.37 1.37 0 0 0 .365-1.175V17.205a1.02 1.02 0 0 0-.34-.876l-2.494-3.021v-.456h7.75l5.981 13.192 5.266-13.182h7.385v.446Z" fill="#fff"/></svg>