<svg width="48" height="47" fill="none" xmlns="http://www.w3.org/2000/svg"><g clip-path="url(#a)"><path d="M47.469 23.5a23.56 23.56 0 0 1-6.848 16.617A23.321 23.321 0 0 1 24.088 47a23.321 23.321 0 0 1-16.533-6.883A23.56 23.56 0 0 1 .707 23.5 23.56 23.56 0 0 1 7.555 6.883 23.321 23.321 0 0 1 24.088 0a23.321 23.321 0 0 1 16.533 6.883A23.56 23.56 0 0 1 47.469 23.5Zm-22.542-6.151c-2.274.952-6.822 2.92-13.637 5.904-1.105.44-1.687.876-1.74 1.299-.087.713.805.995 2.018 1.38l.51.162c1.193.39 2.8.846 3.634.863.76.018 1.604-.293 2.537-.94 6.368-4.32 9.656-6.503 9.86-6.55.147-.035.351-.077.486.047.137.12.122.352.108.414-.088.379-3.586 3.645-5.395 5.337-.564.53-.965.902-1.047.987-.18.186-.363.368-.55.547-1.11 1.075-1.94 1.88.045 3.196.955.634 1.721 1.154 2.484 1.677.83.57 1.66 1.137 2.736 1.848.271.176.534.367.789.55.967.692 1.84 1.315 2.913 1.215.626-.058 1.272-.646 1.6-2.408.774-4.163 2.296-13.178 2.647-16.894.021-.309.009-.62-.038-.925a.991.991 0 0 0-.333-.638 1.532 1.532 0 0 0-.906-.273c-.877.015-2.23.488-8.721 3.202Z" fill="#fff"/></g><defs><clipPath id="a"><path fill="#fff" transform="translate(.707)" d="M0 0h46.762v47H0z"/></clipPath></defs></svg>