<svg width="47" height="47" fill="none" xmlns="http://www.w3.org/2000/svg"><path d="M23.853.313C11.113.313.783 10.694.783 23.5c0 12.805 10.33 23.188 23.07 23.188s23.07-10.383 23.07-23.188S36.593.312 23.853.312ZM34.94 17.79c.016.243.016.497.016.745 0 7.598-5.758 16.35-16.278 16.35a16.16 16.16 0 0 1-8.785-2.577c.463.052.906.073 1.38.073 2.678 0 5.14-.911 7.101-2.454a5.724 5.724 0 0 1-5.345-3.985c.88.13 1.674.13 2.58-.104a5.711 5.711 0 0 1-3.292-1.998 5.763 5.763 0 0 1-1.286-3.643v-.073c.757.43 1.648.694 2.58.73a5.74 5.74 0 0 1-1.871-2.07 5.775 5.775 0 0 1-.678-2.712c0-1.072.278-2.05.777-2.899a16.25 16.25 0 0 0 5.26 4.266 16.171 16.171 0 0 0 6.533 1.743c-.809-3.907 2.096-7.07 5.587-7.07 1.648 0 3.131.694 4.176 1.812a11.265 11.265 0 0 0 3.63-1.382 5.717 5.717 0 0 1-2.512 3.162 11.265 11.265 0 0 0 3.296-.895 12.02 12.02 0 0 1-2.869 2.981Z" fill="#fff"/></svg>